<svg version="1.1" xmlns="http://www.w3.org/2000/svg" xmlns:xlink="http://www.w3.org/1999/xlink" width="39.07123" height="28.54342" viewBox="0,0,39.07123,28.54342"><g transform="translate(-220.46439,-165.80226)"><g data-paper-data="{&quot;isPaintingLayer&quot;:true}" fill-rule="evenodd" stroke-miterlimit="10" stroke-dasharray="" stroke-dashoffset="0" style="mix-blend-mode: normal"><g><path d="M243.27777,166.30149c0.14149,-0.09432 0.3773,-0.04716 0.42446,0.14149l1.22622,5.04635c0,0 3.01838,2.21662 3.91446,3.77297c1.50919,2.59392 1.55635,4.71622 1.55635,4.71622c0,0 3.34851,0.99041 3.91446,3.67865c0.56595,2.68824 -1.50919,7.78176 -10.37568,9.52676c-8.86649,1.745 -15.98798,-0.66027 -19.33649,-6.03676c-3.34851,-5.37649 1.93365,-11.79054 1.65068,-11.41325l-0.99041,-8.44203c-0.04716,-0.18865 0.18865,-0.33014 0.3773,-0.23581l5.70662,3.72581c0,0 2.1223,-0.80176 4.33892,-0.89608c1.32054,-0.09432 2.45243,0 3.53716,0.18865z" fill="#ffab19" stroke="#001026" stroke-width="1.2" stroke-linecap="butt" stroke-linejoin="miter"/><path d="M250.25777,180.16717c0,0 3.25419,0.84892 3.82014,3.53716c0.56595,2.68824 -1.69784,7.54595 -10.47,9.24379c-11.41325,2.35811 -16.8369,-4.43324 -13.67703,-9.43243c3.15987,-5.04635 8.58352,-0.75459 12.54514,-1.03757c3.39568,-0.23581 3.77297,-3.20703 7.78176,-2.31095z" fill="#ffffff" stroke="none" stroke-width="1" stroke-linecap="butt" stroke-linejoin="miter"/><path d="M235.40169,185.21352c0,-0.18865 0.18865,-0.33014 0.3773,-0.28297c0.89608,0.33014 3.44284,1.08473 6.27257,1.27338c2.54676,0.14149 4.05595,0 4.76338,-0.14149c0.23581,-0.04716 0.42446,0.18865 0.33014,0.42446c-0.42446,1.27338 -2.21662,4.81054 -7.16865,4.52757c-4.29176,-0.47162 -4.71622,-3.49 -4.57473,-5.80095z" fill="#ffffff" stroke="#001026" stroke-width="1.2" stroke-linecap="round" stroke-linejoin="round"/><path d="M258.93561,180.68595c-2.21662,1.79216 -5.6123,1.83932 -5.6123,1.83932" fill="none" stroke="#001026" stroke-width="1.2" stroke-linecap="round" stroke-linejoin="round"/><path d="M258.3225,185.96811c-2.97122,0.23581 -4.81054,-0.66027 -4.81054,-0.66027" fill="none" stroke="#001026" stroke-width="1.2" stroke-linecap="round" stroke-linejoin="round"/><path d="M242.28737,181.2519c0.99041,0 2.02797,0.09432 2.07514,0.42446c0.04716,0.66027 -0.66027,1.98081 -1.41487,2.02797c-0.84892,0.09432 -2.82973,-1.08473 -2.82973,-1.83932c-0.04716,-0.56595 1.22622,-0.61311 2.16946,-0.61311z" fill="#001026" stroke="#001026" stroke-width="1.2" stroke-linecap="round" stroke-linejoin="round"/><path d="M221.06439,180.54446c0,0 4.05595,1.32054 5.70662,2.78257" fill="none" stroke="#001026" stroke-width="1.2" stroke-linecap="round" stroke-linejoin="round"/><path d="M226.9125,184.97771c-2.02797,0.80176 -5.51797,0.28297 -5.51797,0.28297" fill="none" stroke="#001026" stroke-width="1.2" stroke-linecap="round" stroke-linejoin="round"/><g><path d="M247.8525,175.73392c1.3677,2.1223 1.41487,4.52757 0.09432,5.37649c-1.32054,0.84892 -3.49,-0.14149 -4.90487,-2.26378c-1.3677,-2.1223 -1.41487,-4.52757 -0.09432,-5.37649c1.32054,-0.89608 3.53716,0.14149 4.90487,2.26378z" fill="#ffffff" stroke="#001026" stroke-width="1.2" stroke-linecap="round" stroke-linejoin="round"/><path d="M247.66385,178.42217c0,0.51878 -0.3773,0.94324 -0.84892,0.94324c-0.47162,0 -0.84892,-0.42446 -0.84892,-0.94324c0,-0.51878 0.3773,-0.94324 0.84892,-0.94324c0.47162,0 0.84892,0.42446 0.84892,0.94324" fill="#001026" stroke="none" stroke-width="1" stroke-linecap="butt" stroke-linejoin="miter"/></g><g><path d="M236.15628,177.05446c1.41487,2.07514 1.32054,4.62189 0.04716,5.51797c-1.55635,0.89608 -3.63149,0.23581 -5.04635,-1.83932c-1.46203,-2.07514 -1.55635,-4.76338 -0.09432,-5.80095c1.46203,-1.08473 3.67865,0.04716 5.09351,2.1223z" fill="#ffffff" stroke="#001026" stroke-width="1.2" stroke-linecap="round" stroke-linejoin="round"/><path d="M235.87331,179.78987c0,0.51878 -0.3773,0.94324 -0.84892,0.94324c-0.47162,0 -0.84892,-0.42446 -0.84892,-0.94324c0,-0.51878 0.3773,-0.94324 0.84892,-0.94324c0.47162,0.04716 0.84892,0.42446 0.84892,0.94324" fill="#001026" stroke="none" stroke-width="1" stroke-linecap="butt" stroke-linejoin="miter"/></g></g></g></g></svg>