<svg version="1.1" xmlns="http://www.w3.org/2000/svg" xmlns:xlink="http://www.w3.org/1999/xlink" width="140.67648" height="82.942" viewBox="0,0,140.67648,82.942"><g transform="translate(-173.66176,-139.529)"><g data-paper-data="{&quot;isPaintingLayer&quot;:true}" fill-rule="nonzero" stroke="#fff7f7" stroke-linecap="butt" stroke-linejoin="miter" stroke-miterlimit="10" stroke-dasharray="" stroke-dashoffset="0" style="mix-blend-mode: normal"><path d="M227.44176,199.961c-3.23,8.95 -12.01,14.39 -26.09,16.17c-0.64,0.08 -1.27,0.13 -1.9,0.15c-0.82,1.2 -1.89,2.24 -3.15,3.05c-3.3,2.11 -6.39,3.14 -9.44,3.14c-6.27,0 -13.02,-4.68 -13.02,-14.96c0,-0.7 0.03,-1.61 0.1,-2.87c0.03,-0.54 0.06,-0.96 0.07,-1.27c-0.17,-0.78 -0.26,-1.57 -0.26,-2.37v-4.84c0,-0.79 0.08,-1.58 0.24,-2.37c0.01,-0.67 0.04,-1.42 0.09,-2.24c-0.24,-0.88 -0.42,-1.9 -0.42,-3.04c0,-0.52 0.04,-1.04 0.11,-1.55c0.38,-2.68 1.57,-5.37 3.58,-7.52c-0.69,-1.93 -1.05,-3.97 -1.05,-6.06v-5.1c0,-2.07 0.41,-4.65 2.42,-11.07c0.84,-2.76 1.11,-3.62 1.48,-4.42c1.97,-4.42 4.94,-6.63 7.1,-7.72c3.53,-1.76 7.32,-2.66 11.26,-2.66c1.82,0 3.56,0.19 5.22,0.55c0.74,-0.5 1.53,-0.92 2.37,-1.27c1.07,-0.46 2.21,-0.78 3.47,-0.98c3.15,-0.54 6.48,0.13 9.38,1.89c3.05,1.86 6.55,5.72 6.12,13.66c-0.07,1.4 -0.19,3.27 -0.37,5.71c-0.01,0.06 -0.01,0.12 -0.02,0.18c-0.16,1.77 -0.39,4.41 -0.7,7.9c0.08,1.35 0.05,2.86 -0.07,4.64c-0.05,0.68 -0.16,1.36 -0.34,2.02c-0.04,0.15 -0.08,0.29 -0.12,0.42c1.35,1.73 2.27,3.46 2.9,4.96c0.59,1.19 1.09,2.56 1.53,4.23c0.17,0.63 0.28,1.27 0.33,1.92c0.45,5.61 0.22,8.92 -0.82,11.72z" fill="#ffab19" stroke-width="0"/><path d="M265.97176,185.779c-0.7,7.55 -2.97,13.28 -6.92,17.45c-2.3,2.43 -5.71,4.35 -11.39,6.39c-0.11,0.04 -0.23,0.08 -0.35,0.12c-2.72,0.87 -5.69,1.32 -8.82,1.32c-4.77,0 -9.2,-0.94 -13.17,-2.79c-5.87,-2.74 -8.79,-6.57 -10.24,-9.8c-0.21,-0.35 -0.43,-0.71 -0.64,-1.1c-0.6,-1.09 -1.02,-2.27 -1.22,-3.5c-0.29,-1.72 -0.75,-4.31 -1.38,-7.75c-0.12,-0.66 -0.18,-1.32 -0.18,-1.99v-8.7c0,-1.08 0.09,-2.66 0.74,-6.94c0.63,-4.19 0.9,-5.49 1.4,-6.77c1.31,-3.49 5.23,-13.75 14.73,-15.78c3.12,-0.66 6.63,-0.75 9.95,-0.39c2.35,-3.77 6.55,-6.02 11.32,-6.02c8.28,0 12.86,5.46 13.72,10.86c0.09,0.57 0.13,1.15 0.13,1.73v13.89c0,0.01 0,0.02 0,0.02c0,0.01 0,0.01 0,0.02c0,0 0,0 0,0.01c0,0.91 -0.12,1.78 -0.32,2.63c1.93,2.19 3,4.89 3.05,7.78c0.06,2.9 -0.08,6.04 -0.41,9.31z" fill="#ffab19" stroke-width="0"/><path d="M308.77176,205.079c-2.51,1.79 -5.58,2.82 -9.11,3.03c-1.46,0.09 -2.88,0.17 -4.25,0.23c-0.75,0.05 -4.13,0.31 -15.47,1.21c-0.08,0.01 -0.17,0.01 -0.26,0.02c-1.96,0.11 -5.29,0.42 -9.91,0.93c-3.56,0.65 -4.49,0.76 -5.57,0.76c-4.77,0 -9.07,-1.88 -12.09,-5.28c-1.51,-1.7 -2.45,-3.83 -2.71,-6.08c-0.19,-1.72 -0.58,-5.18 1.42,-8.6c1.04,-1.81 3,-4.34 6.43,-6.01v-4.38c0,-1.79 -0.16,-5.58 -0.93,-13.49c-3.72,-1.47 -6.5,-4.3 -7.79,-8.05c-0.02,-0.06 -0.04,-0.12 -0.06,-0.19c-0.54,-1.64 -0.81,-3.3 -0.81,-4.94c0,-5.09 3.41,-13.71 16.19,-13.71c1.18,0 2.55,0.12 4.39,0.38c0.14,0.01 0.26,0.01 0.38,0.01c1.38,-0.16 3.82,-0.32 9.78,-0.39h0.14c5.32,0 8.56,2.26 10.35,4.17c2.35,2.5 3.64,5.83 3.64,9.37c0,4.99 -2.42,9.32 -6.48,11.65c-0.78,0.45 -1.61,0.83 -2.48,1.14c0.04,0.6 0.09,1.21 0.14,1.85c0.02,0.27 0.03,0.54 0.03,0.81v4.19c0.02,0.43 0.13,2.13 0.78,8.61c0.11,-0.01 0.22,-0.02 0.33,-0.03c-0.07,-0.38 -0.14,-0.74 -0.21,-1.1c-0.53,-2.68 -0.04,-5.44 1.34,-7.76c1.05,-2.18 2.76,-4.07 5.01,-5.44c2.37,-1.45 5.1,-2.22 7.87,-2.22c2.34,0 4.61,0.61 6.58,1.75c2.18,1.27 4.99,3.79 6.32,8.69c0.66,2.45 0.85,4.8 0.58,7.02c-0.03,0.3 -0.08,1.58 0.34,4.66c0.26,0.52 0.5,1.06 0.74,1.65c0.23,0.56 0.42,1.13 0.55,1.71c1.25,5.35 -0.75,10.65 -5.2,13.83z" fill="#ffab19" stroke-width="0"/><path d="M303.26076,193.746c0.232,0.998 -0.061,1.79 -0.881,2.375c-0.82,0.587 -1.949,0.924 -3.387,1.012c-1.438,0.088 -2.828,0.162 -4.178,0.22c-0.879,0.055 -6.128,0.466 -15.744,1.231c-2.229,0.124 -5.864,0.465 -10.907,1.021c-2.346,0.435 -3.665,0.65 -3.958,0.65c-1.643,0 -2.933,-0.528 -3.87,-1.584c-0.118,-1.056 -0.118,-1.671 0,-1.847c0.703,-1.289 2.022,-2.023 3.958,-2.199c1.583,-0.117 3.137,-0.233 4.662,-0.352c0.058,0 0.116,-0.059 0.176,-0.177c0.117,-2.403 -0.176,-5.159 -0.88,-8.268v-4.926c0,-3.049 -0.352,-8.15 -1.056,-15.306c-0.118,-1.759 -0.294,-4.31 -0.527,-7.652c-0.352,-0.233 -0.822,-0.321 -1.407,-0.264c-0.763,0.118 -1.231,0.146 -1.407,0.088c-0.88,-0.121 -1.79,-0.24 -2.728,-0.361c-1.173,-0.242 -1.906,-0.785 -2.198,-1.63c-0.177,-0.543 -0.265,-1.056 -0.265,-1.538c0,-1.811 1.729,-2.716 5.19,-2.716c0.703,0 1.816,0.118 3.342,0.352c1.231,0.06 2.053,0.06 2.463,0c1.231,-0.176 4.192,-0.293 8.885,-0.352c1.113,0 1.891,0.234 2.33,0.702c0.44,0.469 0.66,1.083 0.66,1.843c0,1.055 -0.323,1.757 -0.968,2.107c-0.879,0.527 -2.258,0.761 -4.134,0.702c-2.347,-0.058 -3.842,-0.029 -4.486,0.088c0.117,2.81 0.381,6.993 0.792,12.551v4.302c0,0.937 0.352,4.857 1.056,11.762c0.176,1.581 0.409,4.067 0.703,7.461c0.117,0.206 0.265,0.308 0.44,0.308c2.11,0.323 4.046,0.426 5.805,0.308c2.169,-0.176 4.368,-0.352 6.598,-0.527c1.407,-0.058 2.814,-0.146 4.222,-0.265c1.877,-0.116 3.723,-0.409 5.541,-0.879c0,-0.645 -0.146,-1.7 -0.439,-3.167c-0.352,-1.816 -0.559,-2.872 -0.615,-3.166c0.057,-0.586 0.088,-1.437 0.088,-2.552c-0.234,-1.523 -0.471,-2.872 -0.703,-4.046c0.057,0 0.176,-0.088 0.352,-0.264c-0.061,-0.527 0.248,-0.996 0.924,-1.407c0.672,-0.41 1.391,-0.616 2.154,-0.616c0.41,0 0.762,0.088 1.055,0.265c0.529,0.294 0.938,0.982 1.232,2.066c0.293,1.086 0.381,2.038 0.264,2.859c-0.234,2.11 0,5.308 0.703,9.587c0.35,0.473 0.731,1.205 1.143,2.201z" fill="#ffffff" stroke-width="4"/><path d="M217.29776,189.125c0.293,3.637 0.233,5.981 -0.176,7.037c-1.702,4.809 -7.42,7.828 -17.152,9.06c-3.285,0.411 -6.568,-1.143 -9.853,-4.662c0,0.528 0.117,2.111 0.353,4.751c0.176,1.935 0.146,3.518 -0.088,4.749c-1.467,0.938 -2.639,1.408 -3.519,1.408c-1.35,0 -2.023,-1.319 -2.023,-3.959c0,-0.469 0.029,-1.216 0.088,-2.242c0.058,-1.025 0.088,-1.744 0.088,-2.155c0,-0.997 -0.088,-1.7 -0.264,-2.111v-4.838c0,-0.117 0.029,-0.249 0.088,-0.396c0.058,-0.146 0.117,-0.278 0.176,-0.396c-0.059,-0.82 -0.03,-2.081 0.088,-3.782c0.117,-1.056 0.117,-1.729 0,-2.023c-0.294,-0.585 -0.439,-0.937 -0.439,-1.055c0.233,-1.642 1.437,-2.463 3.606,-2.463c1.407,0 2.257,0.499 2.551,1.495c0,0.938 0.117,2.317 0.352,4.134c0.353,2.111 1.466,4.223 3.343,6.333c2.052,2.405 4.016,3.519 5.894,3.343c2.111,-0.233 4.222,-0.732 6.333,-1.495c2.932,-1.056 4.691,-2.287 5.278,-3.694c0.409,-1.056 0.615,-2.169 0.615,-3.343c0,-3.576 -1.319,-6.245 -3.958,-8.004c-1.174,-0.762 -3.343,-1.378 -6.51,-1.848c-1.818,-0.233 -2.933,-0.352 -3.342,-0.352c-2.815,0.059 -5.44,-0.85 -7.873,-2.727c-2.434,-1.876 -3.65,-4.047 -3.65,-6.51v-5.101c0,-1.113 0.645,-3.723 1.936,-7.828c0.585,-1.936 0.908,-2.961 0.968,-3.079c0.527,-1.231 1.201,-2.052 2.022,-2.463c1.993,-0.996 4.104,-1.495 6.333,-1.495c4.339,0 7.535,1.759 9.588,5.277c0.176,0.176 0.469,0.44 0.88,0.792c0.058,-0.82 0.176,-2.081 0.352,-3.782c-0.059,-0.762 -0.118,-1.495 -0.176,-2.199c0,-0.82 0.409,-1.377 1.231,-1.671c0.234,-0.117 0.557,-0.205 0.968,-0.264c0.586,-0.117 1.217,0.03 1.892,0.439c0.673,0.411 0.952,1.643 0.835,3.694c-0.059,1.29 -0.176,3.108 -0.352,5.453c-0.176,1.936 -0.439,4.897 -0.792,8.885c0.117,0.938 0.117,2.229 0,3.87c-0.294,1.114 -1.174,1.671 -2.639,1.671c-0.763,0 -1.495,-0.205 -2.199,-0.615c-0.352,-1.113 -0.527,-1.584 -0.527,-1.408c0.116,-1.583 -0.206,-3.694 -0.968,-6.333c-0.646,-1.348 -1.539,-3.268 -2.683,-5.761c-1.144,-2.492 -2.654,-3.827 -4.53,-4.003c-2.346,-0.176 -3.87,0.616 -4.574,2.375c-0.234,0.763 -0.558,1.878 -0.967,3.343c-0.704,2.17 -1.144,4.252 -1.32,6.245c-0.059,0.646 -0.118,0.91 -0.176,0.792c0.176,1.174 0.381,2.346 0.616,3.519c0.293,1.466 1.012,2.581 2.155,3.342c1.144,0.763 3.327,1.231 6.553,1.407c7.916,0.471 12.812,3.227 14.689,8.269c0.292,0.47 0.585,1.261 0.879,2.374z" fill="#ffffff" stroke-width="4"/><path d="M255.38076,176.657c0.057,2.463 -0.059,5.132 -0.352,8.004c-0.471,5.044 -1.789,8.708 -3.959,10.995c-0.998,1.056 -3.372,2.258 -7.124,3.606c-1.643,0.528 -3.461,0.792 -5.454,0.792c-3.166,0 -6.011,-0.586 -8.532,-1.76c-2.757,-1.289 -4.457,-2.96 -5.102,-5.014c-0.234,-0.293 -0.499,-0.703 -0.791,-1.231c-0.295,-1.759 -0.763,-4.397 -1.408,-7.916v-8.708c0,-0.821 0.205,-2.58 0.616,-5.278c0.409,-2.696 0.674,-4.191 0.792,-4.485c2.052,-5.454 4.31,-8.444 6.772,-8.973c1.113,-0.233 2.345,-0.352 3.694,-0.352c4.339,0 8.269,1.056 11.787,3.167c0.233,0.118 0.527,0.176 0.879,0.176c0.059,-0.176 0.117,-0.908 0.177,-2.199c0.058,0 0.058,-1.025 0,-3.078c-0.06,-1.408 0.079,-2.404 0.416,-2.991c0.335,-0.585 1.008,-0.88 2.014,-0.88c1.73,0 2.68,0.528 2.848,1.584c0,0.059 0,2.229 0,6.509c0,3.226 0,5.249 0,6.069c0,0.998 0,1.438 0,1.319c-0.236,0.88 -0.646,1.407 -1.232,1.583c-1.582,0.528 -2.668,0.559 -3.254,0.088c-0.294,0 -0.615,-0.088 -0.968,-0.264c-0.294,-0.82 -0.938,-1.904 -1.935,-3.254c-1.35,-1.113 -3.109,-2.081 -5.277,-2.903c-2.171,-0.82 -4.018,-1.231 -5.542,-1.231c-1.936,0 -3.489,1.495 -4.662,4.486c-1.643,4.105 -2.375,9.411 -2.199,15.921c0.117,2.874 0.205,4.692 0.265,5.453c0.292,2.405 0.938,4.457 1.935,6.157c0.704,1.174 1.788,2.142 3.255,2.903c1.465,0.763 2.902,1.173 4.31,1.231c6.979,0.294 11.053,-2.785 12.228,-9.236c0.645,-3.459 0.703,-6.362 0.176,-8.708c-0.119,-0.469 -0.061,-1.1 0.176,-1.892c0.232,-0.791 1.26,-1.275 3.078,-1.451c0.41,0 0.908,0.191 1.496,0.572c0.582,0.384 0.877,0.779 0.877,1.189z" fill="#ffffff" stroke-width="4"/></g></g></svg>